<svg width="786" height="558" viewBox="0 0 786 558" fill="none" xmlns="http://www.w3.org/2000/svg">
<g clip-path="url(#clip0_7_0)">
<path d="M117.4 509.15C122.99 509.15 127.53 504.62 127.53 499.02C127.53 493.43 123 488.89 117.4 488.89C111.81 488.89 107.27 493.42 107.27 499.02C107.27 504.62 111.8 509.15 117.4 509.15ZM117.4 494.27C120.03 494.27 122.16 496.4 122.16 499.03C122.16 501.66 120.03 503.79 117.4 503.79C114.77 503.79 112.64 501.66 112.64 499.03C112.64 496.4 114.77 494.27 117.4 494.27Z" fill="#90EE90"/>
<path d="M151.24 509.15C156.83 509.15 161.37 504.62 161.37 499.02C161.37 493.43 156.84 488.89 151.24 488.89C145.65 488.89 141.11 493.42 141.11 499.02C141.11 504.62 145.65 509.15 151.24 509.15ZM151.24 494.27C153.87 494.27 156 496.4 156 499.03C156 501.66 153.87 503.79 151.24 503.79C148.61 503.79 146.48 501.66 146.48 499.03C146.49 496.4 148.61 494.27 151.24 494.27Z" fill="#008000"/>
<path d="M489.457 58.1104C494.543 55.9884 496.947 50.1444 494.825 45.0576C492.703 39.9707 486.859 37.5673 481.772 39.6893C476.685 41.8114 474.282 47.6553 476.404 52.7422C478.526 57.829 484.37 60.2325 489.457 58.1104Z" fill="#E8E4DF"/>
<path d="M594.42 31.92C585.05 31.92 577.45 39.52 577.45 48.89C577.45 58.26 585.05 65.86 594.42 65.86C603.79 65.86 611.39 58.26 611.39 48.89C611.39 39.52 603.79 31.92 594.42 31.92ZM594.42 56.99C589.95 56.99 586.33 53.37 586.33 48.9C586.33 44.43 589.95 40.81 594.42 40.81C598.89 40.81 602.51 44.43 602.51 48.9C602.51 53.37 598.89 56.99 594.42 56.99Z" fill="#E8E4DF"/>
<path d="M633.48 39.04C628.04 39.04 623.63 43.45 623.63 48.89C623.63 54.33 628.04 58.74 633.48 58.74C638.92 58.74 643.33 54.33 643.33 48.89C643.33 43.45 638.92 39.04 633.48 39.04ZM633.48 51.55C632.01 51.55 630.82 50.36 630.82 48.89C630.82 47.42 632.01 46.23 633.48 46.23C634.95 46.23 636.14 47.42 636.14 48.89C636.14 50.36 634.95 51.55 633.48 51.55Z" fill="#90EE90"/>
<path d="M556.71 40.16C551.88 40.16 547.97 44.07 547.97 48.9C547.97 53.73 551.88 57.64 556.71 57.64C561.54 57.64 565.45 53.73 565.45 48.9C565.45 44.07 561.54 40.16 556.71 40.16ZM556.71 53.06C554.41 53.06 552.54 51.19 552.54 48.89C552.54 46.59 554.41 44.72 556.71 44.72C559.01 44.72 560.88 46.59 560.88 48.89C560.88 51.19 559.01 53.06 556.71 53.06Z" fill="#008000"/>
<path d="M714.61 371.89L721.45 378.72L723.46 376.71L714.61 367.86L705.77 376.71L707.78 378.72L714.61 371.89Z" fill="#E8E4DF"/>
<path d="M714.61 383.82L721.45 390.65L723.46 388.64L714.61 379.79L705.77 388.64L707.78 390.65L714.61 383.82Z" fill="#E8E4DF"/>
<path d="M714.61 395.89L721.45 402.73L723.46 400.71L714.61 391.87L705.77 400.71L707.78 402.73L714.61 395.89Z" fill="#E8E4DF"/>
<path d="M714.61 347.89L721.45 354.72L723.46 352.71L714.61 343.86L705.77 352.71L707.78 354.72L714.61 347.89Z" fill="#E8E4DF"/>
<path d="M714.61 359.82L721.45 366.65L723.46 364.64L714.61 355.79L705.77 364.64L707.78 366.65L714.61 359.82Z" fill="#E8E4DF"/>
<path d="M65.32 313.52C72.9581 313.52 79.15 307.328 79.15 299.69C79.15 292.052 72.9581 285.86 65.32 285.86C57.6819 285.86 51.49 292.052 51.49 299.69C51.49 307.328 57.6819 313.52 65.32 313.52Z" fill="#008000"/>
<path d="M132.21 299.66L139.04 292.82L137.03 290.81L128.18 299.66L137.03 308.51L139.04 306.49L132.21 299.66Z" fill="#E8E4DF"/>
<path d="M144.14 299.66L150.97 292.82L148.96 290.81L140.11 299.66L148.96 308.51L150.97 306.49L144.14 299.66Z" fill="#E8E4DF"/>
<path d="M156.21 299.66L163.05 292.82L161.03 290.81L152.19 299.66L161.03 308.51L163.05 306.49L156.21 299.66Z" fill="#E8E4DF"/>
<path d="M108.21 299.66L115.04 292.82L113.03 290.81L104.18 299.66L113.03 308.51L115.04 306.49L108.21 299.66Z" fill="#E8E4DF"/>
<path d="M120.14 299.66L126.97 292.82L124.96 290.81L116.11 299.66L124.96 308.51L126.97 306.49L120.14 299.66Z" fill="#E8E4DF"/>
<path d="M303.22 90.21L286.78 106.57L270.33 90.21L253.89 106.57L237.45 90.21L222.95 104.64L208.44 90.21L192 106.57L175.55 90.21L159.11 106.57L142.67 90.21L126.35 106.45L128.17 108.27L142.67 93.84L159.11 110.2L175.55 93.84L192 110.2L208.44 93.84L222.95 108.28L237.45 93.84L253.89 110.2L270.33 93.84L286.78 110.2L303.22 93.84L317.73 108.27L319.54 106.45L303.22 90.21Z" fill="#1C5E0B"/>
<path d="M303.22 60.96L286.78 77.32L270.33 60.96L253.89 77.32L237.45 60.96L224.41 73.94L224.4 77.58L237.45 64.59L253.89 80.95L270.33 64.59L286.78 80.95L303.22 64.59L317.73 79.02L319.54 77.19L303.22 60.96Z" fill="#E8E4DF"/>
<path d="M639.06 486.42L622.62 502.78L606.17 486.42L589.73 502.78L573.29 486.42L556.83 502.81L558.72 504.55L573.29 490.04L589.73 506.4L606.17 490.04L622.62 506.4L639.06 490.04L653.57 504.47L655.38 502.65L639.06 486.42Z" fill="#E8E4DF"/>
<path d="M686.28 429.79C685.09 429.79 684.13 428.82 684.13 427.64C684.13 426.45 685.1 425.49 686.28 425.49C687.46 425.49 688.43 426.46 688.43 427.64C688.43 428.83 687.47 429.79 686.28 429.79Z" fill="#1C5E0B"/>
<path d="M686.28 448.26C685.09 448.26 684.13 447.29 684.13 446.11C684.13 444.92 685.1 443.96 686.28 443.96C687.46 443.96 688.43 444.93 688.43 446.11C688.43 447.29 687.47 448.26 686.28 448.26Z" fill="#1C5E0B"/>
<path d="M706.53 448.26C705.34 448.26 704.38 447.29 704.38 446.11C704.38 444.92 705.35 443.96 706.53 443.96C707.72 443.96 708.68 444.93 708.68 446.11C708.69 447.29 707.72 448.26 706.53 448.26Z" fill="#1C5E0B"/>
<path d="M686.28 466.73C685.09 466.73 684.13 465.76 684.13 464.58C684.13 463.39 685.1 462.43 686.28 462.43C687.46 462.43 688.43 463.4 688.43 464.58C688.43 465.76 687.47 466.73 686.28 466.73Z" fill="#1C5E0B"/>
<path d="M706.53 466.73C705.34 466.73 704.38 465.76 704.38 464.58C704.38 463.39 705.35 462.43 706.53 462.43C707.72 462.43 708.68 463.4 708.68 464.58C708.69 465.76 707.72 466.73 706.53 466.73Z" fill="#1C5E0B"/>
<path d="M726.78 466.73C725.59 466.73 724.63 465.76 724.63 464.58C724.63 463.39 725.6 462.43 726.78 462.43C727.97 462.43 728.93 463.4 728.93 464.58C728.94 465.76 727.97 466.73 726.78 466.73Z" fill="#1C5E0B"/>
<path d="M686.28 485.19C685.09 485.19 684.13 484.22 684.13 483.04C684.13 481.85 685.1 480.89 686.28 480.89C687.46 480.89 688.43 481.86 688.43 483.04C688.43 484.23 687.47 485.19 686.28 485.19Z" fill="#1C5E0B"/>
<path d="M706.53 485.19C705.34 485.19 704.38 484.22 704.38 483.04C704.38 481.85 705.35 480.89 706.53 480.89C707.72 480.89 708.68 481.86 708.68 483.04C708.69 484.23 707.72 485.19 706.53 485.19Z" fill="#1C5E0B"/>
<path d="M686.28 503.66C687.467 503.66 688.43 502.697 688.43 501.51C688.43 500.323 687.467 499.36 686.28 499.36C685.092 499.36 684.13 500.323 684.13 501.51C684.13 502.697 685.092 503.66 686.28 503.66Z" fill="#1C5E0B"/>
<path d="M37.31 327.53C36.25 327.53 35.38 326.67 35.38 325.6C35.38 324.54 36.24 323.67 37.31 323.67C38.38 323.67 39.24 324.53 39.24 325.6C39.24 326.67 38.38 327.53 37.31 327.53Z" fill="#1C5E0B"/>
<path d="M55.45 327.53C54.39 327.53 53.52 326.67 53.52 325.6C53.52 324.54 54.38 323.67 55.45 323.67C56.52 323.67 57.38 324.53 57.38 325.6C57.38 326.67 56.51 327.53 55.45 327.53Z" fill="#1C5E0B"/>
<path d="M73.5799 327.53C72.5199 327.53 71.6499 326.67 71.6499 325.6C71.6499 324.54 72.5099 323.67 73.5799 323.67C74.6399 323.67 75.5099 324.53 75.5099 325.6C75.5099 326.67 74.6499 327.53 73.5799 327.53Z" fill="#1C5E0B"/>
<path d="M91.72 327.53C90.66 327.53 89.79 326.67 89.79 325.6C89.79 324.54 90.65 323.67 91.72 323.67C92.78 323.67 93.65 324.53 93.65 325.6C93.65 326.67 92.78 327.53 91.72 327.53Z" fill="#1C5E0B"/>
<path d="M109.86 327.53C108.8 327.53 107.93 326.67 107.93 325.6C107.93 324.54 108.79 323.67 109.86 323.67C110.92 323.67 111.79 324.53 111.79 325.6C111.78 326.67 110.92 327.53 109.86 327.53Z" fill="#1C5E0B"/>
<path d="M127.99 327.53C126.93 327.53 126.06 326.67 126.06 325.6C126.06 324.54 126.92 323.67 127.99 323.67C129.05 323.67 129.92 324.53 129.92 325.6C129.92 326.67 129.05 327.53 127.99 327.53Z" fill="#1C5E0B"/>
<path d="M146.13 327.53C145.07 327.53 144.2 326.67 144.2 325.6C144.2 324.54 145.06 323.67 146.13 323.67C147.19 323.67 148.06 324.53 148.06 325.6C148.05 326.67 147.19 327.53 146.13 327.53Z" fill="#1C5E0B"/>
<path d="M164.26 327.53C163.2 327.53 162.33 326.67 162.33 325.6C162.33 324.54 163.19 323.67 164.26 323.67C165.32 323.67 166.19 324.53 166.19 325.6C166.19 326.67 165.33 327.53 164.26 327.53Z" fill="#1C5E0B"/>
<path d="M401.56 505.48C400.5 505.48 399.63 504.62 399.63 503.55C399.63 502.49 400.49 501.62 401.56 501.62C402.62 501.62 403.49 502.48 403.49 503.55C403.49 504.62 402.63 505.48 401.56 505.48Z" fill="#1C5E0B"/>
<path d="M365.18 505.48C364.12 505.48 363.25 504.62 363.25 503.55C363.25 502.49 364.11 501.62 365.18 501.62C366.25 501.62 367.11 502.48 367.11 503.55C367.11 504.62 366.24 505.48 365.18 505.48Z" fill="#1C5E0B"/>
<path d="M419.7 505.48C418.64 505.48 417.77 504.62 417.77 503.55C417.77 502.49 418.63 501.62 419.7 501.62C420.76 501.62 421.63 502.48 421.63 503.55C421.63 504.62 420.76 505.48 419.7 505.48Z" fill="#1C5E0B"/>
<path d="M437.84 505.48C436.78 505.48 435.91 504.62 435.91 503.55C435.91 502.49 436.77 501.62 437.84 501.62C438.9 501.62 439.77 502.48 439.77 503.55C439.76 504.62 438.9 505.48 437.84 505.48Z" fill="#1C5E0B"/>
<path d="M455.97 505.48C454.91 505.48 454.04 504.62 454.04 503.55C454.04 502.49 454.9 501.62 455.97 501.62C457.03 501.62 457.9 502.48 457.9 503.55C457.9 504.62 457.03 505.48 455.97 505.48Z" fill="#1C5E0B"/>
<path d="M510.38 505.48C509.32 505.48 508.45 504.62 508.45 503.55C508.45 502.49 509.31 501.62 510.38 501.62C511.44 501.62 512.31 502.48 512.31 503.55C512.31 504.62 511.44 505.48 510.38 505.48Z" fill="#1C5E0B"/>
<path d="M80.8699 51.81C79.7499 51.81 78.9399 52.62 78.9399 53.73C78.9399 54.85 79.7499 55.66 80.8599 55.66C81.9799 55.66 82.7799 54.85 82.7899 53.74C82.7899 52.62 81.9899 51.81 80.8699 51.81Z" fill="#1C5E0B"/>
<path d="M100.13 51.81C99.01 51.79 98.17 52.58 98.15 53.69C98.13 54.81 98.93 55.65 100.03 55.67C101.15 55.69 101.98 54.9 102 53.79C102.03 52.66 101.24 51.83 100.13 51.81Z" fill="#1C5E0B"/>
<path d="M119.32 51.81C118.2 51.8 117.38 52.61 117.37 53.72C117.36 54.84 118.17 55.66 119.28 55.67C120.4 55.68 121.21 54.88 121.22 53.76C121.23 52.63 120.44 51.82 119.32 51.81Z" fill="#1C5E0B"/>
<path d="M32.81 65.28C33.93 65.28 34.74 64.48 34.74 63.36C34.74 62.24 33.94 61.43 32.82 61.43C31.7 61.43 30.89 62.24 30.89 63.35C30.88 64.46 31.7 65.27 32.81 65.28Z" fill="#1C5E0B"/>
<path d="M52 65.28C53.12 65.29 53.94 64.5 53.96 63.38C53.97 62.25 53.18 61.43 52.07 61.42C50.95 61.41 50.12 62.2 50.11 63.31C50.09 64.43 50.9 65.26 52 65.28Z" fill="#1C5E0B"/>
<path d="M71.2299 61.42C70.1199 61.43 69.3099 62.25 69.3199 63.37C69.3299 64.48 70.1599 65.29 71.2699 65.28C72.3899 65.27 73.1799 64.45 73.1699 63.33C73.1699 62.21 72.3499 61.41 71.2299 61.42Z" fill="#1C5E0B"/>
<path d="M90.5499 61.42C89.4299 61.39 88.5799 62.17 88.5399 63.27C88.5099 64.39 89.2899 65.24 90.3899 65.28C91.5099 65.31 92.3599 64.53 92.3899 63.43C92.4299 62.29 91.6599 61.45 90.5499 61.42Z" fill="#1C5E0B"/>
<path d="M109.73 61.42C108.61 61.41 107.78 62.21 107.77 63.31C107.76 64.43 108.56 65.26 109.67 65.27C110.79 65.28 111.61 64.48 111.62 63.37C111.63 62.25 110.84 61.43 109.73 61.42Z" fill="#1C5E0B"/>
<path d="M42.43 74.89C43.55 74.88 44.35 74.07 44.34 72.95C44.34 71.83 43.53 71.03 42.41 71.03C41.29 71.03 40.49 71.85 40.49 72.97C40.5 74.08 41.32 74.89 42.43 74.89Z" fill="#1C5E0B"/>
<path d="M59.72 72.82C59.66 73.95 60.42 74.82 61.51 74.89C62.63 74.95 63.51 74.19 63.57 73.1C63.63 71.97 62.88 71.1 61.79 71.04C60.65 70.97 59.78 71.73 59.72 72.82Z" fill="#1C5E0B"/>
<path d="M80.94 71.03C79.82 71 78.97 71.77 78.94 72.88C78.91 74 79.69 74.85 80.79 74.89C81.91 74.92 82.76 74.14 82.79 73.04C82.82 71.9 82.05 71.06 80.94 71.03Z" fill="#1C5E0B"/>
<path d="M100.05 71.03C98.94 71.04 98.14 71.87 98.16 72.99C98.17 74.1 99 74.9 100.12 74.89C101.23 74.87 102.02 74.05 102.01 72.93C101.99 71.81 101.17 71.02 100.05 71.03Z" fill="#1C5E0B"/>
<path d="M52.03 84.5C53.15 84.5 53.95 83.7 53.96 82.58C53.96 81.46 53.16 80.65 52.04 80.65C50.92 80.65 50.11 81.46 50.11 82.57C50.11 83.68 50.92 84.5 52.03 84.5Z" fill="#1C5E0B"/>
<path d="M71.2099 80.64C70.0999 80.66 69.2999 81.49 69.3199 82.61C69.3399 83.72 70.1699 84.52 71.2899 84.5C72.3999 84.48 73.1899 83.66 73.1699 82.53C73.1599 81.41 72.3399 80.62 71.2099 80.64Z" fill="#1C5E0B"/>
<path d="M90.5099 80.64C89.3899 80.63 88.5599 81.43 88.5499 82.53C88.5399 83.65 89.3399 84.48 90.4499 84.49C91.5699 84.5 92.3899 83.71 92.3999 82.59C92.4099 81.47 91.6199 80.65 90.5099 80.64Z" fill="#1C5E0B"/>
<path d="M61.57 94.11C62.69 94.14 63.54 93.36 63.57 92.26C63.6 91.13 62.83 90.29 61.73 90.26C60.61 90.23 59.76 91.01 59.72 92.11C59.68 93.22 60.47 94.07 61.57 94.11Z" fill="#1C5E0B"/>
<path d="M80.9101 90.25C79.7901 90.23 78.9501 91.02 78.9301 92.13C78.9101 93.25 79.7101 94.09 80.8101 94.11C81.9301 94.13 82.7601 93.34 82.7801 92.23C82.8101 91.1 82.0201 90.27 80.9101 90.25Z" fill="#1C5E0B"/>
<path d="M71.22 99.86C70.11 99.88 69.31 100.7 69.33 101.82C69.35 102.93 70.18 103.73 71.29 103.71C72.4 103.69 73.19 102.87 73.18 101.75C73.16 100.64 72.34 99.84 71.22 99.86Z" fill="#1C5E0B"/>
<path d="M52.04 26.84C53.16 26.84 53.96 26.03 53.96 24.9C53.96 23.78 53.15 22.98 52.03 22.98C50.91 22.98 50.1 23.8 50.11 24.91C50.11 26.03 50.93 26.84 52.04 26.84Z" fill="#1C5E0B"/>
<path d="M73.17 25.04C73.23 23.91 72.48 23.04 71.39 22.98C70.26 22.92 69.39 23.68 69.33 24.77C69.27 25.89 70.03 26.77 71.12 26.83C72.24 26.9 73.12 26.13 73.17 25.04Z" fill="#1C5E0B"/>
<path d="M90.5099 22.98C89.3899 22.97 88.5599 23.77 88.5499 24.87C88.5399 25.99 89.3399 26.82 90.4499 26.83C91.5699 26.84 92.3899 26.05 92.3999 24.93C92.4099 23.81 91.6199 23 90.5099 22.98Z" fill="#1C5E0B"/>
<path d="M42.46 36.45C43.57 36.43 44.36 35.61 44.35 34.49C44.34 33.38 43.52 32.58 42.39 32.6C41.28 32.62 40.48 33.44 40.5 34.56C40.51 35.66 41.34 36.46 42.46 36.45Z" fill="#1C5E0B"/>
<path d="M61.6799 32.59C60.5599 32.58 59.7399 33.37 59.7199 34.48C59.7099 35.6 60.4999 36.43 61.6099 36.44C62.7299 36.45 63.5499 35.66 63.5699 34.54C63.5799 33.43 62.7899 32.61 61.6799 32.59Z" fill="#1C5E0B"/>
<path d="M80.88 32.59C79.76 32.58 78.94 33.38 78.94 34.5C78.93 35.62 79.74 36.44 80.85 36.45C81.97 36.46 82.78 35.65 82.79 34.54C82.79 33.41 82 32.6 80.88 32.59Z" fill="#1C5E0B"/>
<path d="M100.08 32.59C98.9599 32.59 98.1599 33.4 98.1599 34.52C98.1599 35.64 98.9799 36.45 100.09 36.44C101.21 36.44 102.01 35.63 102.01 34.5C102 33.39 101.2 32.59 100.08 32.59Z" fill="#1C5E0B"/>
<path d="M32.79 46.06C33.91 46.07 34.72 45.27 34.73 44.15C34.74 43.03 33.94 42.21 32.83 42.2C31.71 42.19 30.89 43 30.88 44.11C30.88 45.22 31.69 46.05 32.79 46.06Z" fill="#1C5E0B"/>
<path d="M52.01 46.06C53.13 46.07 53.94 45.27 53.95 44.15C53.96 43.03 53.16 42.21 52.05 42.2C50.93 42.19 50.11 43 50.1 44.11C50.1 45.22 50.91 46.05 52.01 46.06Z" fill="#1C5E0B"/>
<path d="M71.3299 42.2C70.2099 42.17 69.3599 42.95 69.3199 44.05C69.2899 45.17 70.0699 46.02 71.1699 46.06C72.2899 46.1 73.1399 45.31 73.1699 44.21C73.2099 43.07 72.4399 42.24 71.3299 42.2Z" fill="#1C5E0B"/>
<path d="M90.48 42.2C89.36 42.2 88.55 43.01 88.55 44.12C88.55 45.24 89.36 46.05 90.47 46.06C91.59 46.06 92.4 45.26 92.4 44.14C92.4 43.01 91.6 42.2 90.48 42.2Z" fill="#1C5E0B"/>
<path d="M109.71 42.2C108.59 42.19 107.77 43 107.76 44.11C107.75 45.23 108.56 46.05 109.67 46.06C110.79 46.07 111.6 45.26 111.61 44.15C111.62 43.02 110.83 42.21 109.71 42.2Z" fill="#1C5E0B"/>
<path d="M23.19 55.67C24.31 55.68 25.12 54.87 25.13 53.76C25.14 52.64 24.34 51.82 23.23 51.82C22.11 51.81 21.29 52.62 21.28 53.73C21.27 54.83 22.08 55.66 23.19 55.67Z" fill="#1C5E0B"/>
<path d="M42.35 55.67C43.47 55.71 44.32 54.92 44.35 53.82C44.38 52.69 43.61 51.85 42.51 51.81C41.39 51.78 40.54 52.56 40.5 53.66C40.46 54.78 41.25 55.63 42.35 55.67Z" fill="#1C5E0B"/>
<path d="M61.6701 51.81C60.5501 51.8 59.7201 52.6 59.7101 53.71C59.7001 54.83 60.5001 55.66 61.6101 55.67C62.7301 55.68 63.5501 54.88 63.5601 53.77C63.5801 52.64 62.7901 51.82 61.6701 51.81Z" fill="#1C5E0B"/>
<path d="M47.43 353.33H0.150024V363.3H47.43V353.33Z" fill="#008000"/>
<path d="M47.43 375H0.150024V384.97H47.43V375Z" fill="#E8E4DF"/>
<path d="M25.49 395.38H0.150024V405.35H25.49V395.38Z" fill="#1C5E0B"/>
<path d="M598.47 141.68H595.09V158.71H598.47V141.68Z" fill="#1C5E0B"/>
<path d="M617.04 141.68H613.66V158.71H617.04V141.68Z" fill="#1C5E0B"/>
<path d="M18.6736 142.63V146.01H35.7036V142.63H18.6736Z" fill="#1C5E0B"/>
<path d="M18.6659 124.058V127.438H35.6959V124.058H18.6659Z" fill="#008000"/>
<path d="M18.6664 105.477V108.857H35.6964V105.477H18.6664Z" fill="#E8E4DF"/>
<path d="M706.63 259.74L722.38 243.99C719.58 245.59 716.99 247.5 714.64 249.67L712.31 252C710.14 254.34 708.23 256.94 706.63 259.74Z" fill="#E8E4DF"/>
<path d="M701.93 272.26L734.9 239.29C733.99 239.47 733.09 239.69 732.2 239.93L702.57 269.56C702.32 270.45 702.11 271.35 701.93 272.26Z" fill="#E8E4DF"/>
<path d="M701.09 280.64C701.09 280.73 701.09 280.82 701.09 280.91L743.54 238.46C743.45 238.46 743.36 238.46 743.27 238.46C742.66 238.46 742.05 238.48 741.44 238.5L701.13 278.81C701.11 279.42 701.09 280.02 701.09 280.64Z" fill="#E8E4DF"/>
<path d="M701.75 288.07L750.72 239.1C750.13 239 749.53 238.9 748.94 238.82L701.48 286.28C701.55 286.89 701.64 287.48 701.75 288.07Z" fill="#E8E4DF"/>
<path d="M703.35 294.29L756.93 240.71C756.41 240.53 755.89 240.37 755.37 240.21L702.86 292.72C703.01 293.25 703.17 293.77 703.35 294.29Z" fill="#E8E4DF"/>
<path d="M705.68 299.78L762.43 243.03C761.97 242.8 761.51 242.57 761.04 242.36L705 298.39C705.22 298.86 705.44 299.32 705.68 299.78Z" fill="#E8E4DF"/>
<path d="M708.6 304.67L767.31 245.96C766.9 245.68 766.49 245.4 766.08 245.13L707.78 303.43C708.05 303.85 708.32 304.26 708.6 304.67Z" fill="#E8E4DF"/>
<path d="M712.07 309.02L771.66 249.43C771.3 249.1 770.93 248.78 770.56 248.47L711.1 307.93C711.42 308.3 711.74 308.66 712.07 309.02Z" fill="#E8E4DF"/>
<path d="M716.05 312.86L775.5 253.41C775.19 253.04 774.87 252.67 774.54 252.31L714.95 311.9C715.31 312.23 715.68 312.55 716.05 312.86Z" fill="#E8E4DF"/>
<path d="M720.55 316.18L778.83 257.9C778.56 257.48 778.29 257.07 778 256.67L719.31 315.36C719.72 315.64 720.13 315.92 720.55 316.18Z" fill="#E8E4DF"/>
<path d="M725.6 318.95L781.59 262.96C781.37 262.49 781.15 262.03 780.92 261.57L724.21 318.28C724.67 318.51 725.13 318.73 725.6 318.95Z" fill="#E8E4DF"/>
<path d="M731.28 321.09L783.74 268.64C783.58 268.11 783.42 267.59 783.25 267.08L729.72 320.61C730.23 320.77 730.75 320.93 731.28 321.09Z" fill="#E8E4DF"/>
<path d="M737.72 322.46L785.1 275.08C785.02 274.48 784.93 273.89 784.83 273.29L735.94 322.18C736.53 322.29 737.12 322.38 737.72 322.46Z" fill="#E8E4DF"/>
<path d="M743.28 322.83C743.93 322.83 744.58 322.81 745.22 322.78L785.42 282.58C785.45 281.94 785.47 281.29 785.47 280.64C785.47 280.59 785.47 280.53 785.47 280.48L743.13 322.82C743.17 322.82 743.23 322.83 743.28 322.83Z" fill="#E8E4DF"/>
<path d="M754.51 321.31L783.95 291.87C784.2 290.98 784.42 290.07 784.6 289.16L751.79 321.97C752.71 321.78 753.62 321.56 754.51 321.31Z" fill="#E8E4DF"/>
<path d="M779.78 301.8L764.44 317.14C770.79 313.45 776.09 308.15 779.78 301.8Z" fill="#E8E4DF"/>
<path d="M226.14 491.42L242.7 474.86C239.76 476.54 237.03 478.55 234.56 480.83L232.11 483.28C229.83 485.76 227.82 488.48 226.14 491.42Z" fill="#1C5E0B"/>
<path d="M221.2 504.58L255.86 469.92C254.9 470.11 253.96 470.34 253.02 470.59L221.87 501.74C221.61 502.68 221.39 503.63 221.2 504.58Z" fill="#1C5E0B"/>
<path d="M220.32 513.39C220.32 513.48 220.32 513.58 220.32 513.67L264.94 469.05C264.85 469.05 264.75 469.05 264.66 469.05C264.02 469.05 263.37 469.07 262.74 469.09L220.36 511.47C220.34 512.11 220.32 512.75 220.32 513.39Z" fill="#1C5E0B"/>
<path d="M221.01 521.21L272.48 469.74C271.86 469.63 271.23 469.53 270.61 469.45L220.72 519.34C220.8 519.96 220.9 520.59 221.01 521.21Z" fill="#1C5E0B"/>
<path d="M222.69 527.74L279.01 471.42C278.47 471.23 277.92 471.06 277.37 470.9L222.17 526.1C222.33 526.65 222.51 527.2 222.69 527.74Z" fill="#1C5E0B"/>
<path d="M225.14 533.51L284.79 473.86C284.31 473.61 283.82 473.38 283.33 473.15L224.43 532.05C224.66 532.55 224.89 533.03 225.14 533.51Z" fill="#1C5E0B"/>
<path d="M228.22 538.65L289.93 476.94C289.5 476.64 289.07 476.35 288.63 476.07L227.35 537.35C227.63 537.8 227.92 538.23 228.22 538.65Z" fill="#1C5E0B"/>
<path d="M231.86 543.23L294.5 480.59C294.12 480.25 293.74 479.91 293.35 479.58L230.85 542.08C231.18 542.47 231.51 542.85 231.86 543.23Z" fill="#1C5E0B"/>
<path d="M236.04 547.26L298.53 484.77C298.2 484.38 297.86 483.99 297.52 483.61L234.88 546.25C235.27 546.6 235.65 546.93 236.04 547.26Z" fill="#1C5E0B"/>
<path d="M240.77 550.76L302.03 489.5C301.75 489.06 301.46 488.63 301.16 488.2L239.47 549.89C239.9 550.18 240.33 550.47 240.77 550.76Z" fill="#1C5E0B"/>
<path d="M246.08 553.66L304.93 494.81C304.7 494.32 304.47 493.83 304.22 493.35L244.61 552.96C245.1 553.2 245.59 553.44 246.08 553.66Z" fill="#1C5E0B"/>
<path d="M252.05 555.91L307.19 500.77C307.03 500.22 306.85 499.67 306.67 499.13L250.41 555.39C250.94 555.58 251.49 555.75 252.05 555.91Z" fill="#1C5E0B"/>
<path d="M258.82 557.35L308.62 507.55C308.54 506.92 308.44 506.29 308.33 505.67L256.94 557.06C257.57 557.18 258.19 557.27 258.82 557.35Z" fill="#1C5E0B"/>
<path d="M264.66 557.74C265.35 557.74 266.03 557.72 266.7 557.69L308.95 515.44C308.98 514.76 309 514.08 309 513.4C309 513.34 309 513.29 309 513.23L264.49 557.74C264.55 557.74 264.61 557.74 264.66 557.74Z" fill="#1C5E0B"/>
<path d="M276.47 556.15L307.42 525.2C307.68 524.26 307.91 523.31 308.11 522.35L273.62 556.84C274.58 556.64 275.53 556.4 276.47 556.15Z" fill="#1C5E0B"/>
<path d="M303.03 535.64L286.9 551.77C293.58 547.88 299.15 542.31 303.03 535.64Z" fill="#1C5E0B"/>
<path d="M351.17 30.17L367.73 13.61C364.79 15.29 362.06 17.3 359.59 19.58L357.14 22.03C354.86 24.5 352.85 27.23 351.17 30.17Z" fill="#1C5E0B"/>
<path d="M346.23 43.33L380.89 8.66998C379.93 8.85998 378.99 9.08998 378.05 9.33998L346.9 40.49C346.65 41.43 346.42 42.37 346.23 43.33Z" fill="#1C5E0B"/>
<path d="M345.35 52.14C345.35 52.23 345.35 52.33 345.35 52.42L389.98 7.79999C389.89 7.79999 389.79 7.79999 389.7 7.79999C389.05 7.79999 388.41 7.81999 387.78 7.83999L345.4 50.22C345.37 50.86 345.35 51.5 345.35 52.14Z" fill="#1C5E0B"/>
<path d="M346.04 59.96L397.51 8.48998C396.89 8.37998 396.26 8.27998 395.64 8.19998L345.75 58.09C345.83 58.71 345.93 59.34 346.04 59.96Z" fill="#1C5E0B"/>
<path d="M347.72 66.49L404.04 10.17C403.5 9.97999 402.95 9.80999 402.4 9.64999L347.2 64.85C347.37 65.4 347.54 65.95 347.72 66.49Z" fill="#1C5E0B"/>
<path d="M350.17 72.26L409.82 12.61C409.34 12.37 408.85 12.13 408.36 11.9L349.46 70.8C349.69 71.29 349.92 71.78 350.17 72.26Z" fill="#1C5E0B"/>
<path d="M353.25 77.4L414.96 15.69C414.53 15.39 414.1 15.1 413.66 14.82L352.38 76.1C352.66 76.54 352.95 76.97 353.25 77.4Z" fill="#1C5E0B"/>
<path d="M356.89 81.98L419.53 19.34C419.15 19 418.77 18.66 418.38 18.33L355.88 80.83C356.21 81.21 356.55 81.6 356.89 81.98Z" fill="#1C5E0B"/>
<path d="M361.08 86.01L423.57 23.52C423.24 23.13 422.9 22.74 422.56 22.36L359.92 85C360.3 85.34 360.68 85.68 361.08 86.01Z" fill="#1C5E0B"/>
<path d="M365.8 89.5L427.06 28.24C426.78 27.8 426.49 27.37 426.19 26.94L364.5 88.64C364.93 88.93 365.36 89.22 365.8 89.5Z" fill="#1C5E0B"/>
<path d="M371.11 92.41L429.96 33.56C429.73 33.07 429.5 32.58 429.25 32.1L369.64 91.71C370.13 91.95 370.62 92.18 371.11 92.41Z" fill="#1C5E0B"/>
<path d="M377.08 94.66L432.22 39.52C432.06 38.97 431.88 38.42 431.7 37.88L375.44 94.14C375.98 94.33 376.53 94.5 377.08 94.66Z" fill="#1C5E0B"/>
<path d="M383.86 96.1L433.66 46.3C433.58 45.67 433.48 45.04 433.37 44.42L381.98 95.81C382.6 95.92 383.23 96.02 383.86 96.1Z" fill="#1C5E0B"/>
<path d="M389.7 96.49C390.39 96.49 391.07 96.47 391.74 96.44L433.99 54.19C434.02 53.51 434.04 52.83 434.04 52.15C434.04 52.09 434.04 52.04 434.04 51.98L389.53 96.49C389.58 96.48 389.64 96.49 389.7 96.49Z" fill="#1C5E0B"/>
<path d="M401.5 94.89L432.45 63.94C432.71 63 432.94 62.05 433.14 61.09L398.65 95.58C399.61 95.38 400.56 95.15 401.5 94.89Z" fill="#1C5E0B"/>
<path d="M428.06 74.38L411.93 90.51C418.61 86.63 424.18 81.06 428.06 74.38Z" fill="#1C5E0B"/>
</g>
<defs>
<clipPath id="clip0_7_0">
<rect width="785.47" height="557.74" fill="white"/>
</clipPath>
</defs>
</svg>
